<svg xmlns="http://www.w3.org/2000/svg" viewBox="0 0 30.6 33.94"><defs><style>.cls-1{fill:#193c50;}.cls-2{fill:#0f2b3e;}.cls-3{fill:#224b61;}.cls-4{fill:#183749;}.cls-5{fill:#8c6cac;}.cls-6{fill:#022724;}.cls-7{fill:#143244;}</style></defs><g id="Camada_2" data-name="Camada 2"><g id="Camada_1-2" data-name="Camada 1"><polygon class="cls-1" points="30.6 26.13 15.3 33.94 15.3 15.64 30.6 7.83 30.6 26.13"/><polygon class="cls-2" points="15.3 33.94 0 26.13 0 7.83 15.3 15.64 15.3 33.94"/><polygon class="cls-3" points="1.1 7.83 15.3 0.56 29.5 7.83 15.3 15.08 1.1 7.83"/><path class="cls-4" d="M15.3,1.12,28.4,7.83,15.3,14.52,2.2,7.83,15.3,1.12M15.3,0,0,7.83l15.3,7.81L30.6,7.83,15.3,0Z"/><polygon class="cls-5" points="0.9 19.02 1.93 19.47 1.93 17.29 2.86 17.53 2.86 14.23 3.84 14.66 3.84 13.47 5.68 14.28 5.68 15.49 6.73 15.99 6.73 18.36 8.52 19.2 8.52 16.94 9.52 17.44 9.52 16.26 11.38 17.09 11.38 18.27 12.46 18.81 12.46 22.28 13.34 22.64 13.34 24.95 14.4 25.46 14.4 32.31 0.9 25.42 0.9 19.02"/><polygon class="cls-2" points="4.68 17.23 5.58 17.63 5.58 18.72 4.68 18.34 4.68 17.23"/><polygon class="cls-1" points="4.68 18.34 5.58 18.72 5.58 19.84 4.68 19.46 4.68 18.34"/><polygon class="cls-2" points="9.46 19.65 10.35 20.05 10.35 21.14 9.46 20.76 9.46 19.65"/><polygon class="cls-1" points="9.46 20.76 10.35 21.14 10.35 22.27 9.46 21.88 9.46 20.76"/><polyline class="cls-2" points="4.68 21.14 10.35 23.86 10.35 24.99 9.44 24.6 9.44 25.8 8.41 25.3 8.41 26.35 6.58 25.56 6.58 24.26 5.59 23.89 5.59 22.57 4.68 22.24 4.68 21.14"/><polygon class="cls-5" points="16.3 25.47 16.3 32.31 29.61 25.51 29.61 19.02 16.3 25.47"/><path class="cls-6" d="M1,9.47l13.3,6.79V32.31L1,25.52v-16M0,7.83v18.3l15.3,7.81V15.65L0,7.83Z"/><path class="cls-7" d="M29.6,9.47v16L16.3,32.31v-16L29.6,9.47m1-1.64L15.3,15.64v18.3l15.3-7.81V7.83Z"/></g></g></svg>